<svg xmlns="http://www.w3.org/2000/svg" width="122" height="32" viewBox="0 0 122 32">
    <defs>
        <linearGradient id="a" x1="2.196%" x2="93.115%" y1="19.169%" y2="72.43%">
            <stop offset="0%" stop-color="#04B7CB"/>
            <stop offset="3%" stop-color="#04B7CC"/>
            <stop offset="17%" stop-color="#04B7D6"/>
            <stop offset="41%" stop-color="#04B7F2"/>
            <stop offset="51%" stop-color="#04B7FF"/>
            <stop offset="78%" stop-color="#0495EC"/>
            <stop offset="99%" stop-color="#0476DB"/>
        </linearGradient>
        <linearGradient id="b" x1="65.786%" x2="-28.708%" y1="19.489%" y2="347.711%">
            <stop offset="0%" stop-color="#04B7CB"/>
            <stop offset="14%" stop-color="#04B7D4"/>
            <stop offset="38%" stop-color="#04B7EE"/>
            <stop offset="51%" stop-color="#04B7FF"/>
            <stop offset="78%" stop-color="#0495EC"/>
            <stop offset="99%" stop-color="#0476DB"/>
        </linearGradient>
        <linearGradient id="c" x1="59.449%" x2="43.4%" y1="-30.025%" y2="96.941%">
            <stop offset="0%" stop-color="#04B7CB"/>
            <stop offset="17%" stop-color="#0DBACF"/>
            <stop offset="45%" stop-color="#27C1DA"/>
            <stop offset="81%" stop-color="#50CDEC"/>
            <stop offset="100%" stop-color="#68D4F7"/>
        </linearGradient>
    </defs>
    <g fill="none" fill-rule="evenodd">
        <path fill="#272628" d="M55.144 22.662c-.542.136-1.25.278-2.12.426-.961.156-1.933.23-2.906.224a6.395 6.395 0 0 1-2.46-.417 3.952 3.952 0 0 1-1.589-1.154 4.53 4.53 0 0 1-.852-1.775 9.31 9.31 0 0 1-.261-2.26V10.92h2.828v6.342c-.075.964.126 1.93.58 2.783a2.246 2.246 0 0 0 1.996.834h1.084c.287-.018.572-.057.853-.117v-9.833h2.847v11.734zM63.221 14.633l2.577-3.705h2.963l-4.106 5.819a71.305 71.305 0 0 1 2.46 3.238c.715.98 1.362 2.007 1.937 3.074h-3.05a9.215 9.215 0 0 0-.553-.97l-.717-1.017a31.668 31.668 0 0 0-1.617-2.114 23.327 23.327 0 0 0-1.608 2.084 31.986 31.986 0 0 0-1.288 1.969h-2.905c.255-.504.54-.993.852-1.464a38.74 38.74 0 0 1 1.085-1.58c.387-.538.784-1.074 1.19-1.61a47.07 47.07 0 0 1 1.212-1.533l-4.146-5.915h3.11l2.604 3.724zM76.229 5.072a7.661 7.661 0 0 1 1.723.174c.38.081.756.185 1.124.31l-.542 2.318a4.49 4.49 0 0 0-.969-.3 5.301 5.301 0 0 0-1.114-.078 2.96 2.96 0 0 0-1.143.194c-.29.116-.546.303-.745.543-.195.247-.33.536-.397.843a4.69 4.69 0 0 0-.117 1.077v.805h2.402v2.337h-2.373v9.716H71.25V10.065A5.173 5.173 0 0 1 72.49 6.4c1-.957 2.36-1.44 3.739-1.328M89.245 16.97a7.766 7.766 0 0 1-.416 2.618 5.82 5.82 0 0 1-1.192 2.017 5.365 5.365 0 0 1-1.859 1.3 6.047 6.047 0 0 1-2.392.465 5.96 5.96 0 0 1-2.383-.466 5.375 5.375 0 0 1-1.84-1.3 5.926 5.926 0 0 1-1.2-2.016 7.572 7.572 0 0 1-.437-2.618 7.475 7.475 0 0 1 .436-2.609 5.82 5.82 0 0 1 1.201-2.017 5.375 5.375 0 0 1 1.86-1.29 6.037 6.037 0 0 1 2.363-.455 6.124 6.124 0 0 1 2.373.456 5.24 5.24 0 0 1 1.85 1.29 5.955 5.955 0 0 1 1.2 2.007c.3.836.447 1.72.436 2.608m-2.905 0a4.698 4.698 0 0 0-.785-2.86 2.788 2.788 0 0 0-4.368 0 4.698 4.698 0 0 0-.784 2.86 4.785 4.785 0 0 0 .784 2.91 2.769 2.769 0 0 0 4.368 0c.567-.86.843-1.881.785-2.91M107.066 7.38c.022.472-.166.93-.514 1.25-.329.305-.762.471-1.21.466a1.78 1.78 0 0 1-1.24-.466 1.6 1.6 0 0 1-.533-1.25 1.62 1.62 0 0 1 .514-1.27 1.79 1.79 0 0 1 1.24-.466c.447-.005.88.162 1.21.465.356.324.551.789.533 1.27zm-3.129 15.63h2.828V10.929h-2.828v12.083zM101.286 21.13c.022.472-.166.93-.513 1.251-.33.304-.763.47-1.211.465a1.78 1.78 0 0 1-1.24-.465 1.6 1.6 0 0 1-.532-1.251 1.62 1.62 0 0 1 .513-1.27 1.79 1.79 0 0 1 1.24-.466c.448-.004.88.162 1.21.466.357.323.552.789.533 1.27zM121.1 16.97a7.766 7.766 0 0 1-.417 2.618 5.82 5.82 0 0 1-1.191 2.017 5.365 5.365 0 0 1-1.86 1.3 6.047 6.047 0 0 1-2.392.465 5.96 5.96 0 0 1-2.383-.466 5.375 5.375 0 0 1-1.84-1.3 5.926 5.926 0 0 1-1.2-2.016 7.572 7.572 0 0 1-.437-2.618 7.475 7.475 0 0 1 .436-2.609 5.82 5.82 0 0 1 1.201-2.017 5.375 5.375 0 0 1 1.86-1.29 6.037 6.037 0 0 1 2.363-.455 6.124 6.124 0 0 1 2.373.456 5.24 5.24 0 0 1 1.85 1.29 5.955 5.955 0 0 1 1.2 2.007c.3.836.447 1.72.436 2.608m-2.905 0a4.698 4.698 0 0 0-.785-2.86 2.788 2.788 0 0 0-4.368 0 4.698 4.698 0 0 0-.784 2.86 4.785 4.785 0 0 0 .784 2.91 2.769 2.769 0 0 0 4.368 0c.568-.86.843-1.881.785-2.91M92.005 23.01h2.848V6.013h-2.848z"/>
        <path d="M35.086 13.682L5.606 4.257l14.837 22.08 3.825-14.458 2.315.746-3.37 12.781z"/>
        <path d="M23.232 25.348l-.02.058 11.874-11.724-29.48-9.425 13.733 20.431 1.104 1.649 3.825-14.458 2.315.746-3.351 12.723 3.177-3.103"/>
        <path fill="url(#a)" fill-rule="nonzero" d="M39.883 12.519l-5.278-1.736L.939.039l20.843 31.03 18.401-18.153-.3-.397zm-15.7 12.877v-.048l-2.12 2.065-1.753-2.734L6.605 4.257l29.481 9.416-11.902 11.723z" transform="translate(-1)"/>
        <path fill="url(#b)" fill-rule="nonzero" d="M28.57 0l-1.878 6.778 2.324.747.717-2.599 5.472 6.051-.6-.194 5.278 1.745z" transform="translate(-1)"/>
        <path fill="url(#c)" fill-rule="nonzero" d="M25.268 11.879l-3.825 14.458-1.104-1.649 1.772 2.725 2.121-2.065 3.351-12.723z" transform="translate(-1)"/>
    </g>
</svg>
